<?xml version="1.0" encoding="UTF-8" standalone="no"?>
<!-- Created with Inkscape (http://www.inkscape.org/) -->

<svg
   xmlns:dc="http://purl.org/dc/elements/1.1/"
   xmlns:cc="http://creativecommons.org/ns#"
   xmlns:rdf="http://www.w3.org/1999/02/22-rdf-syntax-ns#"
   xmlns:svg="http://www.w3.org/2000/svg"
   xmlns="http://www.w3.org/2000/svg"
   xmlns:sodipodi="http://sodipodi.sourceforge.net/DTD/sodipodi-0.dtd"
   xmlns:inkscape="http://www.inkscape.org/namespaces/inkscape"
   width="26.943628mm"
   height="34.459408mm"
   viewBox="0 0 95.469549 122.10026"
   id="svg2"
   version="1.1"
   inkscape:version="0.91 r13725"
   sodipodi:docname="logo-colored.svg">
  <defs
     id="defs4" />
  <sodipodi:namedview
     id="base"
     pagecolor="#ffffff"
     bordercolor="#666666"
     borderopacity="1.0"
     inkscape:pageopacity="0.0"
     inkscape:pageshadow="2"
     inkscape:zoom="2.9676842"
     inkscape:cx="56.265897"
     inkscape:cy="49.447597"
     inkscape:document-units="px"
     inkscape:current-layer="layer1"
     showgrid="false"
     fit-margin-top="0"
     fit-margin-left="0"
     fit-margin-right="0"
     fit-margin-bottom="0"
     showborder="false"
     inkscape:window-width="1440"
     inkscape:window-height="851"
     inkscape:window-x="0"
     inkscape:window-y="1"
     inkscape:window-maximized="1" />
  <metadata
     id="metadata7">
    <rdf:RDF>
      <cc:Work
         rdf:about="">
        <dc:format>image/svg+xml</dc:format>
        <dc:type
           rdf:resource="http://purl.org/dc/dcmitype/StillImage" />
        <dc:title></dc:title>
      </cc:Work>
    </rdf:RDF>
  </metadata>
  <g
     inkscape:label="Layer 1"
     inkscape:groupmode="layer"
     id="layer1"
     transform="translate(-253.66026,-393.05076)">
    <path
       style="fill:#ffffff;fill-opacity:1"
       d="m 253.66026,512.9596 0,-2.19141 3.23947,0 3.23946,0 0,-19.81791 0,-19.81791 0.57167,0 0.57167,0 10e-4,-1.76265 c 8.4e-4,-1.44838 -0.23601,-13.41423 -0.43188,-21.81898 l -0.0455,-1.95342 0.68663,1.9e-4 0.68662,1.9e-4 0.12324,-1.45792 c 0.0678,-0.80182 0.12324,-3.20283 0.12324,-5.33555 l 0,-3.87766 -0.7323,0 -0.73231,0 -0.13306,-5.7148 c -0.095,-4.07882 -0.0706,-5.94688 0.0853,-6.5255 0.51789,-1.9233 1.44312,-2.96375 3.00519,-3.37944 1.36007,-0.36193 2.50661,0.11659 3.26421,1.36236 l 0.33118,0.54457 0.52102,-0.75184 c 1.28155,-1.84927 3.88378,-1.81418 5.10368,0.0688 0.2391,0.36906 0.47953,0.67208 0.53431,0.67337 0.0548,10e-4 0.26451,-0.30389 0.46608,-0.67819 0.20158,-0.37431 0.6073,-0.85203 0.90161,-1.06159 1.37021,-0.97567 2.73472,-0.82141 3.87233,0.43778 0.64835,0.71765 0.72958,0.75677 0.90829,0.43745 0.51353,-0.91763 1.76912,-1.60629 2.93406,-1.60926 1.00136,-0.003 2.2788,0.86831 2.83497,1.93269 0.58216,1.11412 0.6542,2.23936 0.52852,8.25509 l -0.12553,6.00849 -0.82673,0 -0.82673,0 0,1.83067 c 0,1.38805 0.0576,1.80777 0.2382,1.73592 1.78233,-0.70903 1.88118,-0.78225 2.84501,-2.10739 l 0.98775,-1.35805 6.15222,-20.94206 c 3.38371,-11.51813 6.19206,-20.98191 6.24077,-21.03063 0.0487,-0.0487 0.21084,0.32721 0.36027,0.83538 0.14944,0.50817 2.95589,10.05638 6.23657,21.21824 l 5.96487,20.29431 1.0392,1.19728 c 0.99661,1.14821 1.53994,1.55259 2.47272,1.84033 0.42284,0.13043 0.42876,0.1084 0.42876,-1.59559 l 0,-1.72786 -0.77176,0 -0.77177,0 0.0572,-6.33601 c 0.055,-6.09875 0.0728,-6.36524 0.4747,-7.11629 1.43401,-2.67986 4.68763,-3.12754 5.88613,-0.80989 l 0.29351,0.56758 0.55644,-0.76813 c 1.42345,-1.96503 3.97217,-1.86977 5.20313,0.19446 l 0.45179,0.75762 0.24107,-0.58198 c 0.56867,-1.37289 2.42342,-2.34184 3.68544,-1.92534 0.68304,0.22542 1.84363,1.34545 1.84496,1.78049 3.9e-4,0.12736 0.16341,-0.0352 0.36226,-0.36134 0.78885,-1.29366 2.44634,-1.8958 3.8989,-1.41641 0.83542,0.27571 1.88657,1.45775 2.18647,2.45873 0.2362,0.78836 0.32333,11.85463 0.10205,12.96102 -0.1088,0.54401 -0.18293,0.59549 -0.8575,0.59549 l -0.73841,0 0,5.3356 c 0,5.13272 0.0139,5.33559 0.36553,5.33559 1.02986,0 0.96837,-0.80488 0.96837,12.67567 l 0,12.44433 0.73107,0.12352 0.73107,0.12351 0.12644,12.31086 c 0.0695,6.77097 0.12643,15.56077 0.12643,19.53287 l 0,7.22202 3.33499,-0.0599 3.33499,-0.0599 -1.9e-4,2.52488 -3e-4,2.52488 -47.73449,0 -47.73449,0 0,-2.1914 z"
       id="path4350" />
    <path
       style="fill:#708090;fill-opacity:1"
       d="m 272.95414,510.57817 3.57294,-5.3e-4 0.008,-12.6244 0.008,-12.62439 1.98881,-1.47681 1.9888,-1.47682 2.45847,0 2.45847,0 -0.0972,-4.621 c -0.0534,-2.54155 -0.10754,-4.62101 -0.1202,-4.62101 -0.0127,0 -5.18951,0.0264 -11.50409,0.0586 l -11.48105,0.0586 0,18.78906 0,18.78905 3.57294,-0.12487 c 1.96512,-0.0687 5.18077,-0.12511 7.14588,-0.12541 z"
       id="path4348" />
    <path
       style="fill:#708090;fill-opacity:1"
       d="m 292.57119,504.81329 0.0579,-5.76434 0.55873,-1.10342 c 0.6806,-1.34409 1.87141,-2.47714 3.31431,-3.15355 1.00046,-0.46899 1.26696,-0.50645 3.55868,-0.50023 2.12384,0.006 2.63346,0.0688 3.57231,0.4422 1.52567,0.60673 3.0305,2.03385 3.80717,3.61058 l 0.62391,1.26659 0.056,5.38798 0.056,5.38798 6.51821,-0.003 c 3.58501,-0.002 6.71114,-0.0543 6.94695,-0.11751 l 0.42876,-0.1149 0,-9.41034 0,-9.41034 -2.35636,0 -2.35636,0 -0.0943,-1.31847 c -0.12229,-1.70921 -0.59262,-2.56454 -1.45644,-2.64866 -0.34294,-0.0334 -0.82419,0.0708 -1.06943,0.23145 -0.55618,0.36442 -0.93761,1.47492 -0.79932,2.32713 l 0.10489,0.64633 -1.13136,0 -1.13136,0 0,-0.76982 c 0,-0.86563 -0.58596,-2.17068 -1.05553,-2.35087 -0.53057,-0.2036 -1.12847,-0.13131 -1.59049,0.1923 -0.52794,0.36979 -1.15506,1.66857 -1.16093,2.40435 -0.004,0.46386 -0.0753,0.52374 -0.6235,0.52143 -1.10408,-0.005 -1.44678,-0.18472 -1.57312,-0.82664 -0.30786,-1.56416 -0.9461,-2.21967 -2.16117,-2.21967 -0.73257,0 -1.59063,0.96223 -1.92591,2.15972 -0.26492,0.94621 -0.32365,0.9747 -1.58096,0.76688 -0.5255,-0.0869 -0.71459,-0.21135 -0.71459,-0.47044 0,-0.59403 -0.59761,-1.88497 -0.96317,-2.08061 -0.19012,-0.10175 -0.68543,-0.185 -1.10069,-0.185 -0.62375,0 -0.85643,0.11552 -1.3384,0.66445 -0.32087,0.36545 -0.67017,0.98714 -0.77623,1.38154 l -0.19283,0.71709 -1.05381,-0.0653 -1.0538,-0.0653 0,-0.65878 c 0,-0.78747 -0.43536,-1.69683 -0.94223,-1.9681 -0.47753,-0.25556 -1.4581,-0.25077 -1.94444,0.01 -0.41193,0.22046 -1.30064,1.94517 -1.30372,2.53011 -10e-4,0.24406 -0.0954,0.31798 -0.30328,0.2382 -0.16578,-0.0636 -0.63741,-0.11567 -1.04806,-0.11567 -0.70144,0 -0.74665,-0.0344 -0.74665,-0.56781 0,-1.54757 -0.99659,-2.61968 -1.91062,-2.0554 -0.50628,0.31255 -1.5194,2.3361 -1.5194,3.03476 l 0,0.54123 -2.28668,0 -2.28668,0 0,9.62312 0,9.62313 6.94502,0 6.94502,0 0.0579,-5.76435 z"
       id="path4346" />
    <path
       style="fill:#708090;fill-opacity:1"
       d="m 340.36344,502.62189 c -1e-4,-4.16605 -0.057,-12.52673 -0.12649,-18.5793 l -0.12631,-11.00465 -11.87859,0 -11.87859,0 0,4.66864 0,4.66864 1.80378,0 1.80378,0 2.09377,1.47682 2.09377,1.47681 0.009,12.43384 0.009,12.43383 8.09867,0 8.09866,0 -1.8e-4,-7.57463 z"
       id="path4344" />
    <path
       style="fill:#ffffff;fill-opacity:1"
       d="m 281.54056,488.71124 c 0.17189,-0.84465 1.1998,-2.2224 1.98107,-2.6553 1.15216,-0.63842 2.16978,-0.72615 3.18968,-0.275 0.47991,0.21229 0.92112,0.5125 0.98046,0.66713 0.0863,0.22501 0.27579,0.16281 0.94863,-0.31146 1.49064,-1.0507 3.76395,-0.93536 5.12545,0.26005 0.57473,0.50462 0.64964,0.52447 0.8888,0.23546 1.09945,-1.32859 4.57224,-1.31864 5.68012,0.0163 0.22153,0.26693 0.31786,0.23837 0.8899,-0.26389 1.30257,-1.14367 3.51249,-1.24072 4.96348,-0.21797 l 0.7925,0.55861 0.42201,-0.44921 c 1.25044,-1.33104 3.73603,-1.40291 5.16839,-0.14946 0.21448,0.1877 0.355,0.20984 0.44168,0.0696 0.30184,-0.48839 1.63952,-0.96245 2.71383,-0.96176 1.82091,0.001 2.76833,0.83544 3.40751,3.00056 l 0.29535,1.00042 1.32872,0 1.32872,0 -0.056,-1.3715 -0.056,-1.37151 -1.41022,-1.01045 -1.41021,-1.01046 -18.89542,0 -18.89543,0 -1.3637,1.00042 -1.36371,1.00043 -0.006,1.38153 -0.006,1.38154 1.40535,0 c 1.38023,0 1.40727,-0.009 1.512,-0.52403 z"
       id="path4342" />
    <path
       style="fill:#708090;fill-opacity:1"
       d="m 314.25899,477.65894 c 9.6e-4,-2.59396 0.0557,-5.16647 0.12182,-5.71671 l 0.12017,-1.00042 0.83862,0 0.83862,0 -0.13359,-12.57675 -0.13359,-12.57675 0.79288,0 0.79288,0 0,-2.35003 0,-2.35003 -1.60914,-0.69888 -1.60914,-0.69888 -13.49249,0.006 -13.49249,0.006 -1.42917,0.62393 -1.42918,0.62393 -0.0535,2.32409 -0.0535,2.32409 0.77885,0 0.77886,0 -0.13606,12.67203 -0.13606,12.67203 0.88753,0 0.88752,0 9.5e-4,3.85878 c 5.8e-4,2.12233 0.0564,4.69484 0.12402,5.71671 l 0.12304,1.85792 13.31023,0 13.31024,0 0.002,-4.71628 z"
       id="path4340" />
    <path
       style="fill:#ffffff;fill-opacity:1"
       d="m 298.87019,456.83067 c -1.54399,-0.78329 -2.33464,-2.13378 -2.33464,-3.98772 0,-2.60335 1.80925,-4.38685 4.45021,-4.38685 1.5483,0 2.89381,0.7635 3.7086,2.10441 0.59078,0.97225 0.6279,1.1335 0.57167,2.48289 -0.0709,1.70175 -0.60323,2.69539 -1.90577,3.55738 -1.10412,0.73069 -3.28303,0.84225 -4.49007,0.22989 z"
       id="path4338" />
    <path
       style="fill:#708090;fill-opacity:1"
       d="m 283.57802,465.27274 c 1.8e-4,-3.22279 0.0567,-8.48838 0.12564,-11.7013 l 0.12531,-5.84169 -10.44582,-0.0261 -10.44582,-0.0261 0.12447,5.67722 c 0.0685,3.12246 0.18128,8.39979 0.25071,11.72739 l 0.12623,6.05018 10.06947,0 10.06947,0 3.9e-4,-5.85963 z"
       id="path4336" />
    <path
       style="fill:#708090;fill-opacity:1"
       d="m 338.64861,459.41312 0,-11.52869 -10.29007,0 -10.29007,0 1.9e-4,4.23989 c 1.5e-4,2.33194 0.0569,7.51985 0.12623,11.52869 l 0.12595,7.2888 10.16385,0 10.16384,0 0,-11.52869 z"
       id="path4334" />
    <path
       style="fill:#708090;fill-opacity:1"
       d="m 337.31471,440.45272 0,-5.3356 -8.86089,0 -8.86089,0 0,5.3356 0,5.33559 8.86089,0 8.86089,0 0,-5.33559 z"
       id="path4332" />
    <path
       style="fill:#708090;fill-opacity:1"
       d="m 282.24379,440.26216 0,-5.33559 -8.8609,0 -8.86089,0 0,4.16429 c 0,2.29037 -0.0551,4.69138 -0.12242,5.3356 l -0.12243,1.17129 8.98332,0 8.98332,0 0,-5.33559 z"
       id="path4330" />
    <path
       style="fill:#708090;fill-opacity:1"
       d="m 311.93983,437.07033 c -0.39286,-0.42602 -1.47459,-3.90113 -5.78352,-18.57989 -2.91515,-9.93073 -5.3184,-18.03416 -5.34056,-18.00762 -0.0222,0.0265 -2.37932,8.02304 -5.23813,17.77002 -3.30399,11.26483 -5.34841,17.93008 -5.61112,18.29346 -0.2273,0.31442 -0.47658,0.67886 -0.55394,0.80987 -0.1119,0.18948 2.22647,0.23819 11.43492,0.23819 l 11.57559,0 -0.48324,-0.52403 z"
       id="path4328" />
    <path
       style="fill:#708090;fill-opacity:1"
       d="m 339.02943,427.82832 c -1.9e-4,-4.5627 -0.0407,-5.27334 -0.33347,-5.85758 -0.40173,-0.8017 -1.19595,-1.15458 -1.68666,-0.74941 -0.8654,0.71453 -1.58108,4.24017 -1.32328,6.51881 l 0.12539,1.10826 -1.10628,-0.0575 -1.10627,-0.0575 -0.13039,-2.2198 c -0.13912,-2.36833 -0.36057,-3.45296 -0.93484,-4.57861 -0.45992,-0.90152 -0.68691,-1.03084 -1.12056,-0.63839 -0.82672,0.74817 -1.72063,4.12976 -1.72063,6.50898 l 0,1.0231 -1.0189,0 -1.01891,0 -0.21809,-2.37046 c -0.24111,-2.62076 -0.70799,-4.16461 -1.47789,-4.88696 l -0.49043,-0.46013 -0.44321,0.51466 c -0.69305,0.80478 -1.20839,2.43438 -1.55833,4.92774 l -0.32177,2.29268 -0.96613,-0.0564 -0.96612,-0.0564 -0.13094,-2.48572 c -0.137,-2.60073 -0.64415,-4.56737 -1.23644,-4.79466 -0.39494,-0.15155 -1.23742,0.51443 -1.63359,1.29138 -0.29113,0.57094 -0.33322,1.26071 -0.33348,5.46497 l -2.9e-4,4.81156 10.5759,0 10.57591,0 -3.8e-4,-5.19268 z"
       id="path4326" />
    <path
       style="fill:#708090;fill-opacity:1"
       d="m 284.02761,428.07069 c 0.14259,-5.24763 0.0306,-6.22737 -0.78533,-6.86916 -0.61456,-0.48341 -0.8405,-0.47363 -1.33995,0.058 -0.75132,0.79974 -1.03261,1.97888 -1.13517,4.75849 l -0.0967,2.62016 -1.02364,0 -1.02363,0 0,-0.81486 c 0,-1.23354 -0.35929,-3.92328 -0.66986,-5.01473 -0.3186,-1.11972 -0.94457,-2.00988 -1.31375,-1.86821 -0.78119,0.29977 -1.66281,3.12854 -1.93884,6.22099 l -0.13181,1.47681 -0.99267,0 -0.99266,0 -0.11751,-2.05376 c -0.18016,-3.14881 -0.98446,-5.37796 -1.94043,-5.37796 -0.36792,0 -0.56265,0.22509 -1.03043,1.19098 -0.58563,1.20929 -1.16035,3.89649 -1.1615,5.43087 l -6.1e-4,0.80987 -1.0957,-9.5e-4 -1.09571,-9.5e-4 -0.0564,-2.13776 c -0.0607,-2.3027 -0.2459,-3.45207 -0.73745,-4.57747 -0.37206,-0.85181 -0.82565,-0.92272 -1.51201,-0.23637 -1.01117,1.01117 -1.07335,1.44965 -0.92306,6.50914 l 0.13772,4.63661 10.42387,0 10.42386,0 0.12932,-4.75975 z"
       id="path4282" />
  </g>
</svg>
